<svg id="giveaway" xmlns="http://www.w3.org/2000/svg" width="237.289" height="237.289" viewBox="0 0 237.289 237.289">
  <path id="Path_3" data-name="Path 3" d="M216.3,150c-8.914,0-17.271,3.965-24.2,11.324C185.177,153.965,176.82,150,167.906,150c-17.672,0-31,14.223-31,33.089,0,14.745,9.26,25.7,18.316,34.474h73.755c9.056-8.778,18.316-19.728,18.316-34.474C247.3,164.222,233.969,150,216.3,150Z" transform="translate(-73.457 -80.482)" fill="#ffb823"/>
  <path id="Path_4" data-name="Path 4" d="M311.194,183.089c0-18.866-13.327-33.089-31-33.089-8.914,0-17.271,3.965-24.2,11.324v56.239h36.877C301.933,208.785,311.194,197.834,311.194,183.089Z" transform="translate(-137.356 -80.482)" fill="#ff9100"/>
  <path id="Path_5" data-name="Path 5" d="M0,0H13.906V27.806H0Z" transform="matrix(0.866, -0.5, 0.5, 0.866, 60.483, 45.257)" fill="#b8e62e"/>
  <path id="Path_6" data-name="Path 6" d="M0,0H13.906V27.806H0Z" transform="matrix(0.5, -0.866, 0.866, 0.5, 24.86, 85.966)" fill="#f9b"/>
  <path id="Path_7" data-name="Path 7" d="M0,0H27.806V13.906H0Z" transform="matrix(0.5, -0.866, 0.866, 0.5, 150.868, 62.398)" fill="#96cc29"/>
  <path id="Path_8" data-name="Path 8" d="M0,0H27.806V13.906H0Z" transform="matrix(0.866, -0.5, 0.5, 0.866, 181.387, 87.806)" fill="#f69"/>
  <path id="Path_9" data-name="Path 9" d="M409.406,65.458,398.075,57.4l4.033-5.662c2.261-3.184,2-5.424,1.195-10.17-.9-5.288-2.118-12.532,3.571-20.55s12.94-9.24,18.228-10.136c4.752-.808,6.952-1.3,9.213-4.481L439.536,0l11.338,8.052-5.223,6.4c-5.7,8.018-12.94,9.24-18.228,10.136-4.752.808-6.952,1.3-9.213,4.481s-2,5.424-1.2,10.177c.9,5.288,2.125,12.532-3.578,20.543Z" transform="translate(-213.585 0)" fill="#96cc29"/>
  <path id="Path_10" data-name="Path 10" d="M41.713,65.316,37.66,59.667c-5.73-7.99-4.542-15.241-3.666-20.53.781-4.759,1.032-6.993-1.243-10.177s-4.474-3.646-9.233-4.433c-5.3-.869-12.546-2.057-18.276-10.048L0,8.106,11.3,0,16.54,6.375c2.281,3.177,4.474,3.652,9.233,4.44,5.3.869,12.546,2.057,18.276,10.048s4.535,15.241,3.666,20.53c-.787,4.759-1.039,6.993,1.243,10.17L53.01,57.21Z" transform="translate(0 0)" fill="#b8e62e"/>
  <path id="Path_11" data-name="Path 11" d="M247.952,60H241V87.807h13.9V60Z" transform="translate(-129.308 -32.193)" fill="#f9b"/>
  <path id="Path_12" data-name="Path 12" d="M256,60h6.952V87.807H256Z" transform="translate(-137.356 -32.193)" fill="#f69"/>
  <path id="Path_13" data-name="Path 13" d="M227.933,213.9l-29.067,26H38.423l-29.067-26L0,224.188l28.271,25.276V352.054H209.018V249.465l28.271-25.276Z" transform="translate(0 -114.765)" fill="#fff7cc"/>
  <path id="Path_14" data-name="Path 14" d="M346.374,249.465l28.271-25.276L365.289,213.9l-29.067,26H256V352.054h90.374Z" transform="translate(-137.356 -114.765)" fill="#ffca80"/>
</svg>
