<svg xmlns="http://www.w3.org/2000/svg" width="299.334" height="405.333" viewBox="0 0 299.334 405.333">
  <g id="microphone" transform="translate(-52.666)">
    <g id="Group_22" data-name="Group 22">
      <g id="Group_21" data-name="Group 21">
        <path id="Path_24" data-name="Path 24" d="M202.667,256a63.869,63.869,0,0,0,63.787-64l.213-128a64,64,0,0,0-128,0V192A64.05,64.05,0,0,0,202.667,256Z" fill="#4478c5"/>
        <path id="Path_25" data-name="Path 25" d="M315.733,192c0,64-54.08,108.8-113.067,108.8C143.787,300.8,89.6,256,89.6,192H53.333c0,72.853,58.027,133.013,128,143.36v69.973H224V335.36C293.973,325.013,352,264.853,352,192H315.733Z" transform="translate(0 0)" fill="#d94444"/>
        <path id="Path_26" data-name="Path 26" d="M89.333,283.667C110,267,115,273.333,116,262.333c-7.667-8.333-13.333-18.667-19-30-5.667-15-5.667-40.333-5.667-40.333H52.666l3.667,32L65,248.667S83.333,282.333,89.333,283.667Z" fill="#f3db00"/>
      </g>
    </g>
  </g>
</svg>
